<?xml version="1.0" encoding="utf-8"?>
<!-- Generator: Adobe Illustrator 16.0.0, SVG Export Plug-In . SVG Version: 6.00 Build 0)  -->
<!DOCTYPE svg PUBLIC "-//W3C//DTD SVG 1.1//EN" "http://www.w3.org/Graphics/SVG/1.1/DTD/svg11.dtd">
<svg version="1.1" xmlns="http://www.w3.org/2000/svg" xmlns:xlink="http://www.w3.org/1999/xlink" x="0px" y="0px" width="377px"
	 height="377px" viewBox="0 0 377 377" enable-background="new 0 0 377 377" xml:space="preserve">
<g id="Layer_0_xA0_Image_1_">
	<circle fill="#6BA4DF" cx="188.5" cy="188.5" r="188"/>
</g>
<g id="Layer_1_xA0_Image_1_">
	<g>
		<path d="M316.522,218.479V78.772c0-2.324-1.239-4.472-3.264-5.617c-2.008-1.159-4.492-1.135-6.501,0.053l-72.117,42.734
			c-12.852-4.498-26.416-6.787-40.002-6.841c-0.155-0.015-0.312-0.049-0.478-0.049c-0.009,0-0.017,0-0.017,0
			c-0.168,0-0.323,0.034-0.488,0.049c-13.584,0.054-27.149,2.348-40.011,6.841L81.527,73.208c-1.996-1.188-4.473-1.212-6.499-0.053
			c-2.027,1.154-3.265,3.298-3.265,5.617v139.732c0,67.476,54.899,122.382,122.37,122.382c67.487,0,122.389-54.906,122.389-122.382
			C316.522,218.486,316.522,218.482,316.522,218.479z M194.145,327.945c-60.357,0-109.45-49.097-109.45-109.447
			c0-0.012-0.011-0.016-0.011-0.02V90.114l54.188,32.104c-6.917,3.502-13.495,7.658-19.673,12.443
			c-2.816,2.187-3.334,6.25-1.14,9.072c1.277,1.646,3.177,2.504,5.106,2.504c1.384,0,2.776-0.443,3.957-1.359
			c8.535-6.621,17.959-11.918,28.005-15.747c0.205-0.079,0.428-0.136,0.633-0.229c1.227-0.463,2.475-0.901,3.723-1.32l-0.097,21.734
			c-0.021,3.571,2.854,6.475,6.43,6.5c0.01,0,0.02,0,0.03,0c3.557,0,6.441-2.871,6.46-6.437l0.125-25.209
			c5.019-1.003,10.106-1.656,15.211-1.953l-0.107,29.938c-0.018,3.571,2.875,6.47,6.441,6.49c0.011,0,0.021,0,0.021,0
			c3.557,0,6.45-2.879,6.471-6.441l0.107-29.987c5.114,0.297,10.21,0.949,15.238,1.953l-0.116,25.151
			c-0.028,3.577,2.856,6.48,6.428,6.499c0.014,0,0.023,0,0.036,0c3.553,0,6.437-2.875,6.457-6.431l0.107-21.818
			c1.335,0.444,2.669,0.911,3.995,1.409c0.097,0.044,0.196,0.073,0.293,0.113c9.119,3.458,17.755,8.15,25.675,13.934
			c2.875,2.115,6.92,1.482,9.034-1.403c2.106-2.885,1.48-6.923-1.412-9.033c-5.361-3.917-11.013-7.376-16.907-10.367l54.178-32.099
			v128.383c0,0,0,0.007,0,0.011C303.581,278.855,254.489,327.945,194.145,327.945z"/>
		<path d="M252.003,255.442c-2.96-2.005-6.975-1.214-8.984,1.743c-4.335,6.427-11.545,10.264-19.293,10.264
			c-12.823,0-23.268-10.438-23.268-23.266l0,0l0,0v-2.206l18.914-16.212c2.056-1.764,2.797-4.619,1.858-7.152
			c-0.934-2.539-3.352-4.224-6.068-4.224h-42.038c-2.709,0-5.125,1.685-6.061,4.224c-0.944,2.543-0.204,5.389,1.852,7.152
			l18.603,15.937v2.457c0,0.004,0,0.014,0,0.024c0,12.821-10.447,23.266-23.271,23.266c-7.025,0-13.602-3.132-18.046-8.581
			c-2.251-2.765-6.334-3.18-9.092-0.927c-2.776,2.262-3.186,6.334-0.924,9.101c6.918,8.474,17.14,13.336,28.062,13.336
			c0.703,0,1.375-0.065,2.067-0.105c5.741,9.68,16.302,15.809,27.674,15.809c11.351,0,21.924-6.125,27.661-15.809
			c0.686,0.04,1.367,0.105,2.06,0.105c12.052,0,23.269-5.969,30.021-15.959C255.748,261.458,254.966,257.438,252.003,255.442z
			 M193.997,283.15c-5.467,0-10.621-2.375-14.218-6.314c5.73-2.729,10.632-6.899,14.218-12.064
			c3.597,5.165,8.497,9.336,14.228,12.064C204.627,280.775,199.462,283.15,193.997,283.15z"/>
		<circle cx="151.667" cy="195.567" r="12.804"/>
		<path d="M233.995,182.763c7.076,0,12.806,5.736,12.806,12.807c0,7.072-5.729,12.802-12.806,12.802
			c-7.072,0-12.8-5.729-12.8-12.802C221.195,188.499,226.923,182.763,233.995,182.763z"/>
	</g>
</g>
</svg>
